classDiagram
  direction TB
  Entity <|-- Agent
  Agent <|-- Company
  Agent <|-- Person
  Entity <|-- Message
  Entity <|-- PhysicalElement
  PhysicalElement <|-- Boundary
  PhysicalElement <|-- ConnectionPhysical
  PhysicalElement <|-- Equipment
  PhysicalElement <|-- Separator
  Separator <|-- SeparatorSlab
  Separator <|-- SeparatorWall
  Entity <|-- VirtualEntity
  VirtualEntity <|-- ConnectionVirtual
  VirtualEntity <|-- CostRecord
  VirtualEntity <|-- Material
  VirtualEntity <|-- Space
  VirtualEntity <|-- SpatialContext
  SpatialContext <|-- BuiltAssetContext
  BuiltAssetContext <|-- BuildingContext
  BuiltAssetContext <|-- CivilStructureContext
  SpatialContext <|-- LegalSiteContext
  SpatialContext <|-- LevelContext
  SpatialContext <|-- PerimeterContext
  SpatialContext <|-- ProjectContext
  SpatialContext <|-- ZoneContext
  VirtualEntity <|-- System
  VirtualEntity <|-- TimeRecord
  PerformanceProperty <|-- AcousticProperty
  PerformanceProperty <|-- FireProperty
  PerformanceProperty <|-- MaterialProperty
  PerformanceProperty <|-- SecurityProperty
  PerformanceProperty <|-- StructuralProperty
  PerformanceProperty <|-- ThermalProperty
  Entity *-- PerformanceProperty
