classDiagram
  direction TB
  Entity <|-- VirtualEntity
  VirtualEntity <|-- ConnectionVirtual
  VirtualEntity <|-- CostRecord
  VirtualEntity <|-- Material
  VirtualEntity <|-- Space
  VirtualEntity <|-- SpatialContext
  SpatialContext <|-- BuiltAssetContext
  BuiltAssetContext <|-- BuildingContext
  BuiltAssetContext <|-- CivilStructureContext
  SpatialContext <|-- LegalSiteContext
  SpatialContext <|-- LevelContext
  SpatialContext <|-- PerimeterContext
  SpatialContext <|-- ProjectContext
  SpatialContext <|-- ZoneContext
  VirtualEntity <|-- System
  VirtualEntity <|-- TimeRecord
